<svg xmlns="http://www.w3.org/2000/svg" xmlns:xlink="http://www.w3.org/1999/xlink" width="500" zoomAndPan="magnify" viewBox="0 0 375 374.999991" height="500" preserveAspectRatio="xMidYMid meet" version="1.0"><defs><clipPath id="id1"><path d="M 37.5 89 L 228 89 L 228 217 L 37.5 217 Z M 37.5 89 " clip-rule="nonzero"/></clipPath><clipPath id="id2"><path d="M 37.5 216 L 228 216 L 228 243 L 37.5 243 Z M 37.5 216 " clip-rule="nonzero"/></clipPath><clipPath id="id3"><path d="M 143 163 L 344.25 163 L 344.25 280 L 143 280 Z M 143 163 " clip-rule="nonzero"/></clipPath><clipPath id="id4"><path d="M 143 195 L 344.25 195 L 344.25 301 L 143 301 Z M 143 195 " clip-rule="nonzero"/></clipPath><clipPath id="id5"><path d="M 180 300 L 308 300 L 308 337.859375 L 180 337.859375 Z M 180 300 " clip-rule="nonzero"/></clipPath><clipPath id="id6"><path d="M 186 201 L 344.25 201 L 344.25 301 L 186 301 Z M 186 201 " clip-rule="nonzero"/></clipPath><clipPath id="id7"><path d="M 175 31.109375 L 313 31.109375 L 313 111 L 175 111 Z M 175 31.109375 " clip-rule="nonzero"/></clipPath><clipPath id="id8"><path d="M 143 269 L 344.25 269 L 344.25 337.859375 L 143 337.859375 Z M 143 269 " clip-rule="nonzero"/></clipPath></defs><g clip-path="url(#id1)"><path fill="rgb(39.219666%, 73.728943%, 91.369629%)" d="M 227.898438 105.152344 C 227.898438 96.394531 220.789062 89.285156 212.03125 89.285156 L 53.367188 89.285156 C 44.605469 89.285156 37.5 96.394531 37.5 105.152344 L 37.5 216.21875 L 227.898438 216.21875 L 227.898438 105.152344 " fill-opacity="1" fill-rule="nonzero"/></g><path fill="rgb(36.079407%, 69.018555%, 86.669922%)" d="M 212.03125 89.285156 L 85.097656 216.21875 L 227.898438 216.21875 L 227.898438 105.152344 C 227.898438 96.394531 220.789062 89.285156 212.03125 89.285156 " fill-opacity="1" fill-rule="nonzero"/><g clip-path="url(#id2)"><path fill="rgb(88.62915%, 88.62915%, 87.059021%)" d="M 37.5 216.21875 L 37.5 226.796875 C 37.5 235.554688 44.605469 242.660156 53.367188 242.660156 L 212.03125 242.660156 C 220.789062 242.660156 227.898438 235.554688 227.898438 226.796875 L 227.898438 216.21875 L 37.5 216.21875 " fill-opacity="1" fill-rule="nonzero"/></g><path fill="rgb(78.039551%, 77.648926%, 76.078796%)" d="M 159.140625 274.394531 L 106.253906 274.394531 L 116.832031 242.660156 L 148.566406 242.660156 L 159.140625 274.394531 " fill-opacity="1" fill-rule="nonzero"/><path fill="rgb(88.62915%, 88.62915%, 87.059021%)" d="M 169.71875 295.550781 L 95.675781 295.550781 C 89.832031 295.550781 85.097656 290.820312 85.097656 284.972656 C 85.097656 279.125 89.832031 274.394531 95.675781 274.394531 L 169.71875 274.394531 C 175.566406 274.394531 180.296875 279.125 180.296875 284.972656 C 180.296875 290.820312 175.566406 295.550781 169.71875 295.550781 " fill-opacity="1" fill-rule="nonzero"/><path fill="rgb(30.979919%, 60.778809%, 77.648926%)" d="M 121.75 186.449219 L 111.914062 182.523438 L 133.070312 129.632812 L 142.902344 133.558594 L 121.75 186.449219 " fill-opacity="1" fill-rule="nonzero"/><path fill="rgb(30.979919%, 60.778809%, 77.648926%)" d="M 103.074219 178.140625 L 81.917969 162.277344 C 80.59375 161.265625 79.808594 159.714844 79.808594 158.039062 C 79.808594 156.367188 80.59375 154.816406 81.917969 153.804688 L 103.074219 137.9375 L 109.4375 146.410156 L 93.921875 158.039062 L 109.4375 169.671875 L 103.074219 178.140625 " fill-opacity="1" fill-rule="nonzero"/><path fill="rgb(30.979919%, 60.778809%, 77.648926%)" d="M 151.746094 178.140625 L 145.382812 169.671875 L 160.898438 158.039062 L 145.382812 146.410156 L 151.746094 137.9375 L 172.902344 153.804688 C 174.222656 154.816406 175.007812 156.367188 175.007812 158.039062 C 175.007812 159.714844 174.222656 161.265625 172.902344 162.277344 L 151.746094 178.140625 " fill-opacity="1" fill-rule="nonzero"/><path fill="rgb(30.979919%, 60.778809%, 77.648926%)" d="M 63.945312 115.730469 L 53.367188 115.730469 L 53.367188 105.152344 L 63.945312 105.152344 L 63.945312 115.730469 " fill-opacity="1" fill-rule="nonzero"/><path fill="rgb(30.979919%, 60.778809%, 77.648926%)" d="M 85.097656 115.730469 L 74.523438 115.730469 L 74.523438 105.152344 L 85.097656 105.152344 L 85.097656 115.730469 " fill-opacity="1" fill-rule="nonzero"/><path fill="rgb(30.979919%, 60.778809%, 77.648926%)" d="M 106.253906 115.730469 L 95.675781 115.730469 L 95.675781 105.152344 L 106.253906 105.152344 L 106.253906 115.730469 " fill-opacity="1" fill-rule="nonzero"/><path fill="rgb(45.878601%, 22.349548%, 14.898682%)" d="M 275.496094 99.863281 C 275.496094 91.105469 282.601562 83.996094 291.363281 83.996094 C 300.121094 83.996094 307.226562 91.105469 307.226562 99.863281 C 307.226562 108.625 300.121094 115.730469 291.363281 115.730469 C 282.601562 115.730469 275.496094 108.625 275.496094 99.863281 " fill-opacity="1" fill-rule="nonzero"/><path fill="rgb(45.878601%, 22.349548%, 14.898682%)" d="M 180.296875 99.863281 C 180.296875 91.105469 187.402344 83.996094 196.164062 83.996094 C 204.921875 83.996094 212.03125 91.105469 212.03125 99.863281 C 212.03125 108.625 204.921875 115.730469 196.164062 115.730469 C 187.402344 115.730469 180.296875 108.625 180.296875 99.863281 " fill-opacity="1" fill-rule="nonzero"/><g clip-path="url(#id3)"><path fill="rgb(98.429871%, 75.689697%, 59.21936%)" d="M 317 201.757812 L 270.207031 195.0625 L 270.207031 163.328125 L 217.320312 163.328125 L 217.320312 195.0625 L 168.355469 205.558594 C 153.730469 208.699219 143.277344 221.628906 143.277344 236.585938 L 143.277344 279.683594 L 344.25 279.683594 L 344.25 233.160156 C 344.25 217.375 332.640625 203.988281 317 201.757812 " fill-opacity="1" fill-rule="nonzero"/></g><path fill="rgb(97.648621%, 67.059326%, 44.309998%)" d="M 247.75 189.773438 C 255.929688 189.773438 263.636719 187.398438 270.207031 183.285156 L 270.207031 163.328125 L 217.320312 163.328125 L 217.320312 183.285156 C 223.886719 187.398438 231.59375 189.773438 239.777344 189.773438 L 247.75 189.773438 " fill-opacity="1" fill-rule="nonzero"/><g clip-path="url(#id4)"><path fill="rgb(94.119263%, 23.139954%, 23.919678%)" d="M 317 201.757812 L 270.207031 195.0625 C 261.34375 219.914062 226.183594 219.914062 217.320312 195.0625 L 168.355469 205.558594 C 153.730469 208.699219 143.277344 221.628906 143.277344 236.585938 L 143.277344 300.839844 L 344.25 300.839844 L 344.25 233.160156 C 344.25 217.375 332.640625 203.988281 317 201.757812 " fill-opacity="1" fill-rule="nonzero"/></g><g clip-path="url(#id5)"><path fill="rgb(92.158508%, 20.779419%, 20.779419%)" d="M 307.226562 337.859375 L 180.296875 337.859375 L 180.296875 300.839844 L 307.226562 300.839844 L 307.226562 337.859375 " fill-opacity="1" fill-rule="nonzero"/></g><g clip-path="url(#id6)"><path fill="rgb(92.158508%, 20.779419%, 20.779419%)" d="M 344.25 233.160156 C 344.25 217.375 332.640625 203.988281 317 201.757812 L 314.871094 201.445312 C 280.246094 251.710938 228.289062 282.84375 186.992188 300.839844 L 344.25 300.839844 L 344.25 233.160156 " fill-opacity="1" fill-rule="nonzero"/></g><path fill="rgb(97.648621%, 67.059326%, 44.309998%)" d="M 296.652344 99.863281 L 291.363281 99.863281 L 291.363281 131.597656 L 296.652344 131.597656 C 305.410156 131.597656 312.515625 124.488281 312.515625 115.730469 C 312.515625 106.972656 305.410156 99.863281 296.652344 99.863281 " fill-opacity="1" fill-rule="nonzero"/><path fill="rgb(97.648621%, 67.059326%, 44.309998%)" d="M 191.144531 99.863281 L 190.875 99.863281 C 182.15625 99.863281 175.007812 106.992188 175.007812 115.730469 C 175.007812 124.449219 182.15625 131.597656 190.875 131.597656 L 196.472656 131.597656 L 196.164062 99.863281 L 191.144531 99.863281 " fill-opacity="1" fill-rule="nonzero"/><path fill="rgb(98.429871%, 75.689697%, 59.21936%)" d="M 243.761719 179.195312 C 217.484375 179.195312 196.164062 157.875 196.164062 131.597656 L 196.164062 94.574219 C 196.164062 68.296875 217.484375 46.976562 243.761719 46.976562 C 270.042969 46.976562 291.363281 68.296875 291.363281 94.574219 L 291.363281 131.597656 C 291.363281 157.875 270.042969 179.195312 243.761719 179.195312 " fill-opacity="1" fill-rule="nonzero"/><path fill="rgb(98.039246%, 71.369934%, 51.368713%)" d="M 243.761719 46.976562 C 240.125 46.976562 236.59375 47.429688 233.183594 48.195312 C 254.382812 53.007812 270.207031 71.933594 270.207031 94.574219 L 270.207031 131.597656 C 270.207031 154.238281 254.382812 173.164062 233.183594 177.976562 C 236.59375 178.742188 240.125 179.195312 243.761719 179.195312 C 270.042969 179.195312 291.363281 157.875 291.363281 131.597656 L 291.363281 94.574219 C 291.363281 68.296875 270.042969 46.976562 243.761719 46.976562 " fill-opacity="1" fill-rule="nonzero"/><g clip-path="url(#id7)"><path fill="rgb(45.878601%, 22.349548%, 14.898682%)" d="M 296.652344 62.84375 C 296.546875 62.84375 296.464844 62.863281 296.382812 62.863281 C 296.507812 61.996094 296.652344 61.105469 296.652344 60.199219 C 296.652344 49.972656 288.367188 41.6875 278.140625 41.6875 C 272.6875 41.6875 267.832031 44.105469 264.441406 47.84375 C 262.417969 38.277344 253.925781 31.109375 243.761719 31.109375 C 233.597656 31.109375 225.109375 38.277344 223.082031 47.84375 C 219.695312 44.105469 214.839844 41.6875 209.386719 41.6875 C 199.160156 41.6875 190.875 49.972656 190.875 60.199219 C 190.875 61.105469 191.019531 61.996094 191.144531 62.863281 C 191.0625 62.863281 190.976562 62.84375 190.875 62.84375 C 182.117188 62.84375 175.007812 69.949219 175.007812 78.710938 C 175.007812 87.46875 182.117188 94.574219 190.875 94.574219 C 192.753906 94.574219 190.875 94.246094 190.875 94.574219 L 196.164062 110.441406 L 203.972656 87.015625 C 206.347656 88.417969 209.074219 89.285156 212.03125 89.285156 C 220.789062 89.285156 227.898438 82.179688 227.898438 73.421875 C 228.289062 73.542969 228.621094 73.648438 228.992188 73.792969 C 231.265625 79.742188 236.988281 83.996094 243.761719 83.996094 C 250.539062 83.996094 256.261719 79.742188 258.535156 73.792969 C 258.90625 73.648438 259.238281 73.542969 259.628906 73.421875 C 259.628906 82.179688 266.734375 89.285156 275.496094 89.285156 C 278.449219 89.285156 281.175781 88.417969 283.554688 87.015625 L 291.363281 110.441406 L 296.652344 94.574219 C 296.652344 94.246094 294.769531 94.574219 296.652344 94.574219 C 305.410156 94.574219 312.515625 87.46875 312.515625 78.710938 C 312.515625 69.949219 305.410156 62.84375 296.652344 62.84375 " fill-opacity="1" fill-rule="nonzero"/></g><path fill="rgb(96.469116%, 59.21936%, 32.939148%)" d="M 259.628906 146.824219 L 259.277344 141.535156 C 252.769531 141.96875 245.953125 142.175781 239.09375 142.175781 L 227.898438 142.175781 L 227.898438 152.753906 L 239.09375 152.753906 C 246.199219 152.753906 253.203125 152.523438 259.980469 152.089844 L 259.628906 146.824219 " fill-opacity="1" fill-rule="nonzero"/><path fill="rgb(81.959534%, 18.03894%, 16.468811%)" d="M 312.515625 332.570312 L 301.941406 332.570312 L 301.941406 247.949219 L 312.515625 247.949219 L 312.515625 332.570312 " fill-opacity="1" fill-rule="nonzero"/><path fill="rgb(81.959534%, 18.03894%, 16.468811%)" d="M 185.585938 332.570312 L 175.007812 332.570312 L 175.007812 247.949219 L 185.585938 247.949219 L 185.585938 332.570312 " fill-opacity="1" fill-rule="nonzero"/><g clip-path="url(#id8)"><path fill="rgb(97.648621%, 67.059326%, 44.309998%)" d="M 164.429688 337.859375 L 180.296875 337.859375 L 280.785156 316.703125 L 301.941406 316.703125 L 317.804688 306.128906 L 344.25 306.128906 L 344.25 269.105469 L 317.804688 269.105469 L 280.785156 284.972656 L 143.277344 295.550781 L 143.277344 316.703125 C 143.277344 328.378906 152.738281 337.859375 164.429688 337.859375 " fill-opacity="1" fill-rule="nonzero"/><path fill="rgb(98.429871%, 75.689697%, 59.21936%)" d="M 323.09375 337.859375 L 307.226562 337.859375 L 206.742188 316.703125 L 185.585938 316.703125 L 169.71875 306.128906 L 143.277344 306.128906 L 143.277344 269.105469 L 169.71875 269.105469 L 206.742188 284.972656 L 344.25 295.550781 L 344.25 316.703125 C 344.25 328.378906 334.789062 337.859375 323.09375 337.859375 " fill-opacity="1" fill-rule="nonzero"/></g><path fill="rgb(88.62915%, 88.62915%, 87.059021%)" d="M 201.453125 115.730469 C 201.453125 106.972656 208.558594 99.863281 217.320312 99.863281 C 226.078125 99.863281 233.183594 106.972656 233.183594 115.730469 C 233.183594 124.488281 226.078125 131.597656 217.320312 131.597656 C 208.558594 131.597656 201.453125 124.488281 201.453125 115.730469 " fill-opacity="1" fill-rule="nonzero"/><path fill="rgb(88.62915%, 88.62915%, 87.059021%)" d="M 254.339844 115.730469 C 254.339844 106.972656 261.449219 99.863281 270.207031 99.863281 C 278.964844 99.863281 286.074219 106.972656 286.074219 115.730469 C 286.074219 124.488281 278.964844 131.597656 270.207031 131.597656 C 261.449219 131.597656 254.339844 124.488281 254.339844 115.730469 " fill-opacity="1" fill-rule="nonzero"/><path fill="rgb(45.878601%, 22.349548%, 14.898682%)" d="M 270.207031 126.308594 C 264.382812 126.308594 259.628906 121.554688 259.628906 115.730469 C 259.628906 109.90625 264.382812 105.152344 270.207031 105.152344 C 276.03125 105.152344 280.785156 109.90625 280.785156 115.730469 C 280.785156 121.554688 276.03125 126.308594 270.207031 126.308594 Z M 217.320312 126.308594 C 211.492188 126.308594 206.742188 121.554688 206.742188 115.730469 C 206.742188 109.90625 211.492188 105.152344 217.320312 105.152344 C 223.144531 105.152344 227.898438 109.90625 227.898438 115.730469 C 227.898438 121.554688 223.144531 126.308594 217.320312 126.308594 Z M 270.207031 94.574219 C 260.375 94.574219 252.171875 101.351562 249.796875 110.441406 L 237.730469 110.441406 C 235.355469 101.351562 227.152344 94.574219 217.320312 94.574219 C 205.644531 94.574219 196.164062 104.058594 196.164062 115.730469 C 196.164062 127.402344 205.644531 136.886719 217.320312 136.886719 C 227.152344 136.886719 235.355469 130.109375 237.730469 121.019531 L 249.796875 121.019531 C 252.171875 130.109375 260.375 136.886719 270.207031 136.886719 C 281.878906 136.886719 291.363281 127.402344 291.363281 115.730469 C 291.363281 104.058594 281.878906 94.574219 270.207031 94.574219 " fill-opacity="1" fill-rule="nonzero"/></svg>