<svg xmlns="http://www.w3.org/2000/svg" xmlns:xlink="http://www.w3.org/1999/xlink" width="100" zoomAndPan="magnify" viewBox="0 0 75 37.5" height="50" preserveAspectRatio="xMidYMid meet" version="1.0"><defs><g/><clipPath id="id1"><path d="M 2.8125 5.898438 L 19.835938 5.898438 L 19.835938 29.582031 L 2.8125 29.582031 Z M 2.8125 5.898438 " clip-rule="nonzero"/></clipPath></defs><g clip-path="url(#id1)"><path fill="rgb(100%, 100%, 100%)" d="M 3.726562 18.574219 L 18.875 18.574219 C 19.1875 18.574219 19.441406 18.828125 19.441406 19.144531 C 19.441406 19.160156 19.441406 19.175781 19.441406 19.191406 L 18.703125 28.445312 C 18.664062 28.90625 18.285156 29.261719 17.828125 29.261719 L 4.773438 29.261719 C 4.316406 29.261719 3.9375 28.90625 3.898438 28.445312 L 3.164062 19.191406 C 3.136719 18.878906 3.371094 18.601562 3.679688 18.574219 C 3.695312 18.574219 3.710938 18.574219 3.726562 18.574219 Z M 8.730469 15.644531 C 9.902344 17.085938 12.003906 17.285156 13.425781 16.101562 C 13.585938 15.964844 13.734375 15.8125 13.871094 15.644531 L 17.671875 18.128906 C 17.730469 18.164062 17.789062 18.207031 17.847656 18.25 L 4.753906 18.25 C 4.8125 18.207031 4.867188 18.164062 4.929688 18.128906 Z M 12.5 9.867188 C 12.511719 9.863281 12.519531 9.867188 12.527344 9.875 C 12.882812 10.4375 13.496094 10.777344 14.15625 10.78125 C 14.246094 10.785156 14.316406 10.859375 14.316406 10.945312 L 14.316406 13.496094 C 14.308594 15.179688 12.953125 16.542969 11.285156 16.539062 C 9.632812 16.527344 8.289062 15.171875 8.285156 13.496094 L 8.285156 11.582031 C 8.285156 11.492188 8.355469 11.417969 8.445312 11.417969 C 8.453125 11.417969 8.460938 11.417969 8.46875 11.417969 C 9.984375 11.648438 11.503906 11.0625 12.484375 9.875 C 12.488281 9.871094 12.492188 9.867188 12.496094 9.867188 Z M 9.933594 5.898438 C 8.070312 5.898438 6.558594 7.425781 6.558594 9.3125 C 6.558594 9.316406 6.558594 9.316406 6.558594 9.316406 L 6.558594 10.816406 C 6.558594 11.917969 7.082031 12.953125 7.96875 13.59375 C 7.984375 14.234375 8.183594 14.859375 8.539062 15.390625 L 4.757812 17.855469 C 4.582031 17.96875 4.421875 18.101562 4.273438 18.253906 L 3.726562 18.253906 C 3.238281 18.25 2.839844 18.652344 2.839844 19.144531 C 2.839844 19.171875 2.84375 19.195312 2.84375 19.21875 L 3.582031 28.46875 C 3.632812 29.097656 4.148438 29.582031 4.773438 29.582031 L 17.828125 29.582031 C 18.449219 29.582031 18.96875 29.097656 19.019531 28.46875 L 19.753906 19.21875 C 19.796875 18.726562 19.429688 18.296875 18.945312 18.253906 C 18.921875 18.253906 18.898438 18.253906 18.875 18.253906 L 18.328125 18.253906 C 18.179688 18.101562 18.019531 17.96875 17.84375 17.855469 L 14.0625 15.390625 C 14.417969 14.859375 14.617188 14.234375 14.632812 13.59375 C 15.519531 12.949219 16.042969 11.917969 16.042969 10.816406 L 16.042969 9.066406 C 16.042969 8.308594 15.503906 7.664062 14.769531 7.53125 C 14.6875 7.515625 14.617188 7.472656 14.570312 7.398438 C 13.953125 6.460938 12.914062 5.898438 11.800781 5.898438 L 9.933594 5.898438 " fill-opacity="1" fill-rule="nonzero"/></g><path fill="rgb(100%, 100%, 100%)" d="M 10.53125 26.550781 L 12.371094 21.113281 C 12.394531 21.027344 12.347656 20.941406 12.265625 20.914062 C 12.183594 20.886719 12.097656 20.929688 12.070312 21.011719 L 10.230469 26.449219 C 10.203125 26.53125 10.25 26.621094 10.335938 26.648438 C 10.414062 26.671875 10.5 26.628906 10.53125 26.550781 " fill-opacity="1" fill-rule="nonzero"/><path fill="rgb(100%, 100%, 100%)" d="M 13.390625 22.472656 L 14.714844 23.8125 L 13.390625 25.152344 C 13.332031 25.214844 13.335938 25.316406 13.402344 25.378906 C 13.460938 25.4375 13.554688 25.4375 13.617188 25.378906 L 14.96875 24.011719 C 15.074219 23.902344 15.074219 23.722656 14.96875 23.613281 L 13.617188 22.246094 C 13.550781 22.183594 13.453125 22.191406 13.390625 22.253906 C 13.335938 22.316406 13.335938 22.414062 13.390625 22.472656 " fill-opacity="1" fill-rule="nonzero"/><path fill="rgb(100%, 100%, 100%)" d="M 8.886719 25.378906 C 8.953125 25.4375 9.054688 25.429688 9.113281 25.363281 C 9.167969 25.304688 9.164062 25.210938 9.113281 25.152344 L 7.792969 23.8125 L 9.113281 22.472656 C 9.171875 22.40625 9.164062 22.304688 9.101562 22.246094 C 9.039062 22.195312 8.949219 22.195312 8.886719 22.246094 L 7.539062 23.613281 C 7.429688 23.722656 7.429688 23.902344 7.539062 24.011719 L 8.886719 25.378906 " fill-opacity="1" fill-rule="nonzero"/><g fill="rgb(100%, 100%, 100%)" fill-opacity="1"><g transform="translate(19.723529, 22.211493)"><g><path d="M 0.734375 0 L 0.734375 -6.84375 L 2.59375 -6.84375 L 2.59375 -1.5 L 5.234375 -1.5 L 5.234375 0 Z M 0.734375 0 "/></g></g></g><g fill="rgb(100%, 100%, 100%)" fill-opacity="1"><g transform="translate(25.30211, 22.211493)"><g><path d="M 6.5625 -6.84375 L 6.5625 -2.71875 C 6.5625 -1.820312 6.304688 -1.128906 5.796875 -0.640625 C 5.296875 -0.148438 4.566406 0.09375 3.609375 0.09375 C 2.671875 0.09375 1.953125 -0.144531 1.453125 -0.625 C 0.953125 -1.101562 0.703125 -1.789062 0.703125 -2.6875 L 0.703125 -6.84375 L 2.5625 -6.84375 L 2.5625 -2.828125 C 2.5625 -2.347656 2.648438 -2 2.828125 -1.78125 C 3.015625 -1.5625 3.285156 -1.453125 3.640625 -1.453125 C 4.015625 -1.453125 4.285156 -1.554688 4.453125 -1.765625 C 4.628906 -1.984375 4.71875 -2.34375 4.71875 -2.84375 L 4.71875 -6.84375 Z M 6.5625 -6.84375 "/></g></g></g><g fill="rgb(100%, 100%, 100%)" fill-opacity="1"><g transform="translate(32.556137, 22.211493)"><g><path d="M 3.796875 -5.421875 C 3.347656 -5.421875 3 -5.238281 2.75 -4.875 C 2.507812 -4.519531 2.390625 -4.023438 2.390625 -3.390625 C 2.390625 -2.078125 2.890625 -1.421875 3.890625 -1.421875 C 4.191406 -1.421875 4.484375 -1.460938 4.765625 -1.546875 C 5.054688 -1.628906 5.34375 -1.726562 5.625 -1.84375 L 5.625 -0.28125 C 5.0625 -0.03125 4.414062 0.09375 3.6875 0.09375 C 2.65625 0.09375 1.863281 -0.203125 1.3125 -0.796875 C 0.757812 -1.398438 0.484375 -2.269531 0.484375 -3.40625 C 0.484375 -4.113281 0.613281 -4.734375 0.875 -5.265625 C 1.144531 -5.804688 1.53125 -6.222656 2.03125 -6.515625 C 2.539062 -6.804688 3.132812 -6.953125 3.8125 -6.953125 C 4.550781 -6.953125 5.257812 -6.789062 5.9375 -6.46875 L 5.359375 -5 C 5.109375 -5.125 4.851562 -5.222656 4.59375 -5.296875 C 4.34375 -5.378906 4.078125 -5.421875 3.796875 -5.421875 Z M 3.796875 -5.421875 "/></g></g></g><g fill="rgb(100%, 100%, 100%)" fill-opacity="1"><g transform="translate(38.77588, 22.211493)"><g><path d="M 4.9375 0 L 4.609375 -1.28125 L 2.375 -1.28125 L 2.03125 0 L 0 0 L 2.234375 -6.875 L 4.703125 -6.875 L 6.96875 0 Z M 4.21875 -2.796875 L 3.921875 -3.921875 C 3.859375 -4.171875 3.773438 -4.492188 3.671875 -4.890625 C 3.578125 -5.285156 3.515625 -5.570312 3.484375 -5.75 C 3.453125 -5.59375 3.394531 -5.328125 3.3125 -4.953125 C 3.226562 -4.585938 3.046875 -3.867188 2.765625 -2.796875 Z M 4.21875 -2.796875 "/></g></g></g><g fill="rgb(100%, 100%, 100%)" fill-opacity="1"><g transform="translate(45.735065, 22.211493)"><g><path d="M 5.21875 -2.078125 C 5.21875 -1.648438 5.109375 -1.269531 4.890625 -0.9375 C 4.679688 -0.613281 4.375 -0.359375 3.96875 -0.171875 C 3.5625 0.00390625 3.082031 0.09375 2.53125 0.09375 C 2.070312 0.09375 1.6875 0.0625 1.375 0 C 1.070312 -0.0625 0.753906 -0.175781 0.421875 -0.34375 L 0.421875 -1.984375 C 0.773438 -1.804688 1.140625 -1.664062 1.515625 -1.5625 C 1.898438 -1.457031 2.253906 -1.40625 2.578125 -1.40625 C 2.847656 -1.40625 3.046875 -1.453125 3.171875 -1.546875 C 3.304688 -1.648438 3.375 -1.773438 3.375 -1.921875 C 3.375 -2.015625 3.347656 -2.09375 3.296875 -2.15625 C 3.242188 -2.226562 3.160156 -2.300781 3.046875 -2.375 C 2.929688 -2.445312 2.625 -2.59375 2.125 -2.8125 C 1.6875 -3.019531 1.351562 -3.21875 1.125 -3.40625 C 0.90625 -3.601562 0.738281 -3.820312 0.625 -4.0625 C 0.519531 -4.3125 0.46875 -4.601562 0.46875 -4.9375 C 0.46875 -5.570312 0.695312 -6.066406 1.15625 -6.421875 C 1.613281 -6.773438 2.242188 -6.953125 3.046875 -6.953125 C 3.753906 -6.953125 4.476562 -6.785156 5.21875 -6.453125 L 4.65625 -5.03125 C 4.007812 -5.320312 3.457031 -5.46875 3 -5.46875 C 2.75 -5.46875 2.570312 -5.425781 2.46875 -5.34375 C 2.363281 -5.257812 2.3125 -5.15625 2.3125 -5.03125 C 2.3125 -4.894531 2.378906 -4.769531 2.515625 -4.65625 C 2.648438 -4.550781 3.023438 -4.359375 3.640625 -4.078125 C 4.234375 -3.816406 4.644531 -3.53125 4.875 -3.21875 C 5.101562 -2.914062 5.21875 -2.535156 5.21875 -2.078125 Z M 5.21875 -2.078125 "/></g></g></g><g fill="rgb(100%, 100%, 100%)" fill-opacity="1"><g transform="translate(51.266846, 22.211493)"><g/></g></g><g fill="rgb(100%, 100%, 100%)" fill-opacity="1"><g transform="translate(53.756615, 22.211493)"><g><path d="M 6.546875 -3.5625 C 6.546875 -2.425781 6.234375 -1.546875 5.609375 -0.921875 C 4.984375 -0.304688 4.097656 0 2.953125 0 L 0.734375 0 L 0.734375 -6.84375 L 3.109375 -6.84375 C 4.210938 -6.84375 5.0625 -6.5625 5.65625 -6 C 6.25 -5.4375 6.546875 -4.625 6.546875 -3.5625 Z M 4.640625 -3.5 C 4.640625 -4.132812 4.515625 -4.601562 4.265625 -4.90625 C 4.015625 -5.207031 3.632812 -5.359375 3.125 -5.359375 L 2.59375 -5.359375 L 2.59375 -1.515625 L 3 -1.515625 C 3.5625 -1.515625 3.972656 -1.675781 4.234375 -2 C 4.503906 -2.332031 4.640625 -2.832031 4.640625 -3.5 Z M 4.640625 -3.5 "/></g></g></g><g fill="rgb(100%, 100%, 100%)" fill-opacity="1"><g transform="translate(60.790681, 22.211493)"><g><path d="M 4.8125 0 L 0.734375 0 L 0.734375 -6.84375 L 4.8125 -6.84375 L 4.8125 -5.359375 L 2.59375 -5.359375 L 2.59375 -4.28125 L 4.640625 -4.28125 L 4.640625 -2.796875 L 2.59375 -2.796875 L 2.59375 -1.515625 L 4.8125 -1.515625 Z M 4.8125 0 "/></g></g></g><g fill="rgb(100%, 100%, 100%)" fill-opacity="1"><g transform="translate(66.051023, 22.211493)"><g><path d="M 4.59375 -6.84375 L 6.65625 -6.84375 L 4.40625 0 L 2.234375 0 L 0 -6.84375 L 2.078125 -6.84375 L 3.015625 -3.375 C 3.203125 -2.601562 3.304688 -2.066406 3.328125 -1.765625 C 3.347656 -1.984375 3.390625 -2.253906 3.453125 -2.578125 C 3.523438 -2.910156 3.585938 -3.171875 3.640625 -3.359375 Z M 4.59375 -6.84375 "/></g></g></g></svg>